<?xml version="1.0" standalone="no"?>
<!DOCTYPE svg PUBLIC "-//W3C//DTD SVG 20010904//EN"
 "http://www.w3.org/TR/2001/REC-SVG-20010904/DTD/svg10.dtd">
<svg version="1.0" xmlns="http://www.w3.org/2000/svg"
 width="786.000000pt" height="1017.000000pt" viewBox="0 0 786.000000 1017.000000"
 preserveAspectRatio="xMidYMid meet">

<g transform="translate(0.000000,1017.000000) scale(0.100000,-0.100000)"
fill="#000000" stroke="none">
<path d="M0 5085 l0 -5085 3930 0 3930 0 0 5085 0 5085 -3930 0 -3930 0 0
-5085z m4139 3443 c12 -29 37 -150 56 -268 20 -118 42 -242 50 -275 8 -33 19
-85 25 -115 16 -85 39 -200 50 -250 34 -156 105 -621 150 -980 6 -47 15 -110
20 -140 5 -30 11 -77 14 -105 59 -529 103 -877 146 -1135 10 -63 30 -191 45
-285 14 -93 30 -192 35 -220 32 -181 37 -562 11 -745 -25 -168 -87 -385 -153
-530 l-29 -65 28 -22 c15 -13 33 -23 39 -23 6 0 10 -13 9 -30 -1 -16 2 -27 7
-24 5 3 6 -7 2 -23 -4 -15 -13 -32 -21 -36 -7 -4 -13 -16 -13 -25 -1 -18 -23
-52 -34 -52 -4 0 -19 -11 -34 -25 -15 -14 -35 -25 -44 -25 -10 0 -18 -4 -18
-10 0 -5 -17 -12 -37 -15 -38 -6 -114 -34 -123 -45 -14 -17 -100 -41 -160 -45
-68 -4 -69 -4 -75 23 -5 26 -7 27 -71 24 -56 -3 -66 -7 -73 -25 -9 -22 -11
-22 -147 -15 -75 4 -142 12 -148 18 -5 5 -18 10 -28 10 -10 0 -18 7 -18 15 0
8 -5 15 -12 15 -14 0 -118 107 -118 121 0 5 -7 9 -15 9 -11 0 -15 11 -15 38 0
21 -5 43 -12 50 -6 6 -11 35 -11 64 1 39 -9 81 -38 160 -60 161 -79 228 -104
368 -19 108 -23 388 -7 498 6 37 16 108 22 157 16 129 69 427 100 565 14 64
38 205 61 355 11 72 21 137 24 145 4 16 18 130 60 505 14 121 32 272 40 335 7
63 21 180 30 260 17 148 58 445 75 535 15 83 91 387 145 580 7 28 21 77 30
110 18 68 42 151 61 210 6 22 24 85 40 140 15 55 31 104 36 110 4 5 8 15 8 22
0 29 63 145 84 153 32 13 32 13 55 -42z m526 -5188 c3 -6 -1 -7 -9 -4 -18 7
-21 14 -7 14 6 0 13 -4 16 -10z m-1463 -212 c-19 -19 -14 -28 12 -18 15 5 27
5 34 -2 6 -6 21 -16 34 -22 22 -11 23 -17 29 -166 6 -161 22 -246 58 -315 12
-21 21 -45 21 -52 0 -7 4 -13 10 -13 5 0 12 -11 16 -25 3 -14 10 -25 15 -25 5
0 9 -4 9 -9 0 -5 13 -22 29 -38 62 -61 111 -92 187 -118 43 -15 86 -30 95 -35
19 -10 136 -26 254 -36 115 -9 398 35 430 67 5 5 17 9 27 9 10 0 18 4 18 8 0
5 18 17 40 28 22 10 40 25 40 32 0 6 7 12 15 12 13 0 65 44 65 55 0 3 7 13 15
23 67 75 95 118 110 161 9 28 21 53 26 56 5 4 9 28 9 56 0 27 5 49 10 49 6 0
10 45 10 115 0 111 1 115 23 119 30 6 57 4 57 -4 0 -14 42 -55 55 -52 7 1 15
-11 19 -30 3 -18 13 -46 22 -63 8 -17 18 -68 21 -117 4 -75 2 -97 -17 -146
-12 -31 -31 -82 -42 -112 -36 -96 -103 -196 -167 -253 -14 -12 -36 -33 -50
-47 -30 -29 -67 -50 -87 -50 -8 0 -14 -4 -14 -9 0 -6 -26 -18 -57 -27 -32 -9
-65 -19 -73 -22 -8 -3 -19 -7 -25 -7 -26 -4 -73 -18 -100 -30 -17 -8 -42 -16
-55 -19 -14 -2 -41 -11 -61 -20 -20 -8 -67 -18 -105 -22 -38 -3 -82 -12 -99
-19 -29 -12 -71 -19 -215 -31 -158 -15 -410 9 -410 37 0 5 -15 9 -34 9 -18 0
-47 7 -62 15 -16 8 -37 15 -46 15 -10 0 -18 4 -18 9 0 5 -17 15 -37 22 -37 12
-47 18 -84 52 -10 9 -22 17 -26 17 -5 1 -24 21 -43 46 -19 26 -41 52 -47 59
-7 8 -13 21 -13 29 0 9 -5 16 -11 16 -16 0 -35 23 -37 45 -1 11 -4 45 -8 75
-3 30 -1 132 5 225 10 169 29 255 72 335 23 42 62 89 69 85 4 -2 12 7 19 21 6
14 15 23 20 20 5 -3 16 5 25 19 9 14 20 25 23 25 4 0 2 -5 -5 -12z m1758 -120
c0 -6 -6 -5 -15 2 -8 7 -15 14 -15 16 0 2 7 1 15 -2 8 -4 15 -11 15 -16z"/>
</g>
</svg>
